<?xml version="1.0" encoding="utf-8"?>
<!-- Generator: Adobe Illustrator 16.0.0, SVG Export Plug-In . SVG Version: 6.00 Build 0)  -->
<!DOCTYPE svg PUBLIC "-//W3C//DTD SVG 1.1//EN" "http://www.w3.org/Graphics/SVG/1.1/DTD/svg11.dtd">
<svg version="1.1" id="Layer_1" xmlns="http://www.w3.org/2000/svg" xmlns:xlink="http://www.w3.org/1999/xlink" x="0px" y="0px"
	 width="100px" height="100px" viewBox="0 0 100 100" enable-background="new 0 0 100 100" xml:space="preserve">
<g>
	<path d="M15.726,20.083V7.269h37.068c12.54,0,21.742,4.804,27.609,14.409c4.326,7.114,6.489,16.023,6.489,26.729
		c0,11.66-2.348,21.487-7.039,29.479C73.766,88.3,64.563,93.505,52.244,93.505H15.726V20.083 M32.995,78.766h17.049
		c6.526,0,11.402-3.08,14.629-9.239c2.786-5.061,4.18-11.66,4.18-19.799c0-11.292-2.273-19.102-6.819-23.429
		c-2.934-2.786-7.078-4.18-12.43-4.18H32.995V78.766z"/>
</g>
</svg>
