<?xml version="1.0" encoding="utf-8"?>
<!-- Generator: Adobe Illustrator 16.0.0, SVG Export Plug-In . SVG Version: 6.00 Build 0)  -->
<!DOCTYPE svg PUBLIC "-//W3C//DTD SVG 1.1//EN" "http://www.w3.org/Graphics/SVG/1.1/DTD/svg11.dtd">
<svg version="1.1" id="Layer_1" xmlns="http://www.w3.org/2000/svg" xmlns:xlink="http://www.w3.org/1999/xlink" x="0px" y="0px"
	 width="100px" height="100px" viewBox="0 0 100 100" enable-background="new 0 0 100 100" xml:space="preserve">
<g>
	<path d="M15.411,32.311c0.759-0.126,1.754-0.235,3.021-0.235c1.555,0,2.694,0.361,3.418,1.013c0.669,0.579,1.067,1.465,1.067,2.55
		c0,1.103-0.326,1.971-0.94,2.604c-0.832,0.886-2.188,1.338-3.726,1.338c-0.471,0-0.904-0.018-1.266-0.108v4.884h-1.574V32.311z
		 M16.984,38.189c0.343,0.091,0.777,0.126,1.302,0.126c1.899,0,3.057-0.922,3.057-2.604c0-1.609-1.139-2.387-2.875-2.387
		c-0.688,0-1.212,0.055-1.483,0.127V38.189z"/>
	<path d="M25.489,40.522l-1.266,3.834h-1.628l4.142-12.19h1.899l4.16,12.19h-1.682l-1.303-3.834H25.489z M29.486,39.293l-1.194-3.51
		c-0.271-0.795-0.452-1.519-0.632-2.225h-0.037c-0.18,0.724-0.379,1.465-0.615,2.207l-1.193,3.527H29.486z"/>
	<path d="M34.593,32.329c0.796-0.163,1.936-0.253,3.021-0.253c1.682,0,2.768,0.308,3.527,0.995c0.615,0.543,0.958,1.375,0.958,2.315
		c0,1.609-1.012,2.677-2.297,3.111v0.054c0.94,0.326,1.501,1.194,1.791,2.46c0.398,1.7,0.688,2.875,0.941,3.346h-1.628
		c-0.199-0.344-0.471-1.393-0.814-2.913c-0.362-1.682-1.013-2.315-2.442-2.369h-1.483v5.281h-1.574V32.329z M36.167,37.882h1.61
		c1.682,0,2.749-0.922,2.749-2.315c0-1.574-1.139-2.261-2.803-2.279c-0.76,0-1.302,0.072-1.555,0.145V37.882z"/>
	<path d="M46.391,40.522l-1.266,3.834h-1.628l4.142-12.19h1.899l4.16,12.19h-1.683l-1.301-3.834H46.391z M50.388,39.293l-1.193-3.51
		c-0.271-0.795-0.452-1.519-0.633-2.225h-0.037c-0.18,0.724-0.379,1.465-0.615,2.207l-1.194,3.527H50.388z"/>
	<path d="M55.276,42.439c0.706,0.434,1.738,0.796,2.822,0.796c1.609,0,2.551-0.85,2.551-2.08c0-1.139-0.651-1.791-2.298-2.424
		c-1.989-0.705-3.219-1.736-3.219-3.454c0-1.899,1.574-3.31,3.943-3.31c1.247,0,2.151,0.29,2.693,0.597l-0.433,1.284
		c-0.397-0.217-1.212-0.579-2.315-0.579c-1.664,0-2.297,0.995-2.297,1.827c0,1.139,0.742,1.7,2.424,2.351
		c2.062,0.796,3.11,1.791,3.11,3.582c0,1.88-1.394,3.509-4.268,3.509c-1.177,0-2.461-0.344-3.111-0.778L55.276,42.439z"/>
	<path d="M65.991,32.167v12.19h-1.575v-12.19H65.991z"/>
	<path d="M71.056,33.505h-3.707v-1.338h9.024v1.338h-3.726v10.852h-1.592V33.505z"/>
	<path d="M84.048,38.641h-4.739v4.396h5.281v1.32h-6.855v-12.19h6.585v1.32h-5.011v3.853h4.739V38.641z"/>
</g>
</svg>
