<?xml version="1.0" encoding="utf-8"?>
<!-- Generator: Adobe Illustrator 16.0.0, SVG Export Plug-In . SVG Version: 6.00 Build 0)  -->
<!DOCTYPE svg PUBLIC "-//W3C//DTD SVG 1.1//EN" "http://www.w3.org/Graphics/SVG/1.1/DTD/svg11.dtd">
<svg version="1.1" id="Layer_1" xmlns="http://www.w3.org/2000/svg" xmlns:xlink="http://www.w3.org/1999/xlink" x="0px" y="0px"
	 width="100%" height="100%" viewBox="0 0 60 60" style="enable-background:new 0 0 60 60;" xml:space="preserve">
<style type="text/css">
<![CDATA[
	.st0{fill:#FFE600;}
]]>
</style>
<circle class="st0" cx="29.999" cy="30.001" r="18.541"/>
<path class="st0" d="M30.823,7.063c0,0.427-0.347,0.775-0.772,0.775l0,0c-0.427,0-0.774-0.348-0.774-0.775V0.776
	c0-0.428,0.348-0.775,0.774-0.775l0,0c0.426,0,0.772,0.347,0.772,0.775V7.063z"/>
<path class="st0" d="M19.246,9.724c0.212,0.371,0.087,0.844-0.284,1.057l0,0c-0.369,0.213-0.842,0.087-1.055-0.282l-3.145-5.447
	c-0.215-0.369-0.086-0.842,0.282-1.055l0,0c0.371-0.215,0.844-0.087,1.057,0.282L19.246,9.724z"/>
<path class="st0" d="M10.547,17.818c0.369,0.213,0.497,0.686,0.282,1.055l0,0c-0.213,0.371-0.686,0.497-1.055,0.285l-5.447-3.145
	c-0.369-0.212-0.495-0.686-0.282-1.057l0,0c0.212-0.369,0.686-0.497,1.057-0.282L10.547,17.818z"/>
<path class="st0" d="M7.062,29.175c0.427,0,0.772,0.347,0.772,0.775l0,0c0,0.425-0.345,0.772-0.772,0.772H0.775
	C0.347,30.723,0,30.375,0,29.95l0,0c0-0.428,0.347-0.775,0.775-0.775H7.062z"/>
<path class="st0" d="M9.723,40.756c0.371-0.215,0.842-0.087,1.057,0.282l0,0c0.213,0.368,0.087,0.842-0.284,1.057L5.05,45.237
	c-0.369,0.215-0.842,0.087-1.057-0.282l0,0c-0.212-0.369-0.087-0.842,0.284-1.057L9.723,40.756z"/>
<path class="st0" d="M17.815,49.452c0.215-0.369,0.688-0.497,1.057-0.282l0,0c0.371,0.212,0.497,0.686,0.285,1.055l-3.145,5.447
	c-0.215,0.369-0.686,0.497-1.057,0.282l0,0c-0.369-0.213-0.497-0.687-0.282-1.055L17.815,49.452z"/>
<path class="st0" d="M29.174,52.938c0-0.428,0.347-0.773,0.773-0.773l0,0c0.427,0,0.774,0.346,0.774,0.773v6.289
	c0,0.425-0.348,0.772-0.772,0.772l0,0c-0.428,0-0.775-0.348-0.775-0.772V52.938z"/>
<path class="st0" d="M40.753,50.276c-0.213-0.369-0.087-0.842,0.284-1.055l0,0c0.368-0.215,0.842-0.089,1.055,0.282l3.145,5.445
	c0.215,0.371,0.089,0.844-0.282,1.057l0,0c-0.371,0.213-0.842,0.087-1.057-0.284L40.753,50.276z"/>
<path class="st0" d="M49.451,42.184c-0.369-0.215-0.497-0.688-0.282-1.057l0,0c0.212-0.369,0.686-0.497,1.055-0.282l5.447,3.143
	c0.369,0.215,0.497,0.688,0.282,1.057l0,0c-0.213,0.371-0.687,0.497-1.058,0.282L49.451,42.184z"/>
<path class="st0" d="M52.937,30.825c-0.428,0-0.773-0.345-0.773-0.772l0,0c0-0.428,0.346-0.773,0.773-0.773h6.287
	c0.427,0,0.774,0.345,0.774,0.773l0,0c0,0.427-0.348,0.772-0.772,0.772H52.937z"/>
<path class="st0" d="M50.275,19.247c-0.369,0.212-0.842,0.087-1.057-0.284l0,0c-0.213-0.369-0.087-0.842,0.284-1.055l5.445-3.145
	c0.368-0.212,0.842-0.086,1.057,0.282l0,0c0.213,0.371,0.087,0.844-0.284,1.057L50.275,19.247z"/>
<path class="st0" d="M42.183,10.548c-0.215,0.371-0.688,0.497-1.057,0.284l0,0c-0.369-0.215-0.497-0.686-0.282-1.057l3.143-5.445
	c0.215-0.371,0.686-0.497,1.057-0.284l0,0c0.369,0.215,0.497,0.688,0.282,1.057L42.183,10.548z"/>
</svg>
