<?xml version="1.0" encoding="utf-8"?>
<!-- Generator: Adobe Illustrator 16.0.0, SVG Export Plug-In . SVG Version: 6.00 Build 0)  -->
<!DOCTYPE svg PUBLIC "-//W3C//DTD SVG 1.1//EN" "http://www.w3.org/Graphics/SVG/1.1/DTD/svg11.dtd">
<svg version="1.1" id="Layer_1" xmlns="http://www.w3.org/2000/svg" xmlns:xlink="http://www.w3.org/1999/xlink" x="0px" y="0px"
	 width="100%" height="100%" viewBox="0 0 60 60" style="enable-background:new 0 0 60 60;" xml:space="preserve">
<style type="text/css">
<![CDATA[
	.st0{fill:#FFE600;}
	.st1{fill:#FFFFFF;}
]]>
</style>
<circle class="st0" cx="41.971" cy="26.612" r="11.103"/>
<path class="st0" d="M42.464,12.876c0,0.255-0.207,0.463-0.463,0.463l0,0c-0.255,0-0.463-0.208-0.463-0.463V9.11
	c0-0.256,0.208-0.463,0.463-0.463l0,0c0.256,0,0.463,0.207,0.463,0.463V12.876z"/>
<path class="st0" d="M35.53,14.47c0.128,0.222,0.052,0.504-0.17,0.632l0,0c-0.221,0.128-0.504,0.052-0.632-0.169l-1.883-3.261
	c-0.128-0.221-0.053-0.505,0.17-0.632l0,0c0.221-0.128,0.504-0.052,0.632,0.169L35.53,14.47z"/>
<path class="st0" d="M30.322,19.316c0.221,0.128,0.297,0.412,0.169,0.633l0,0c-0.128,0.221-0.411,0.297-0.632,0.169l-3.262-1.883
	c-0.222-0.128-0.297-0.411-0.17-0.632l0,0c0.128-0.222,0.412-0.298,0.633-0.17L30.322,19.316z"/>
<path class="st0" d="M28.234,26.118c0.256,0,0.463,0.208,0.463,0.463l0,0c0,0.255-0.207,0.463-0.463,0.463h-3.766
	c-0.255,0-0.463-0.208-0.463-0.463l0,0c0-0.256,0.208-0.463,0.463-0.463L28.234,26.118z"/>
<path class="st0" d="M29.828,33.053c0.222-0.128,0.504-0.053,0.632,0.17l0,0c0.128,0.221,0.052,0.504-0.169,0.631l-3.261,1.884
	c-0.221,0.128-0.505,0.052-0.632-0.17l0,0c-0.128-0.221-0.052-0.504,0.169-0.631L29.828,33.053z"/>
<path class="st0" d="M34.675,38.261c0.129-0.222,0.412-0.298,0.633-0.169l0,0c0.221,0.127,0.297,0.41,0.17,0.632l-1.884,3.261
	c-0.127,0.223-0.41,0.298-0.631,0.17l0,0c-0.223-0.128-0.298-0.41-0.17-0.633L34.675,38.261z"/>
<path class="st0" d="M41.477,40.347c0-0.255,0.207-0.463,0.463-0.462l0,0c0.256,0,0.463,0.207,0.463,0.462v3.767
	c0,0.256-0.207,0.463-0.463,0.463l0,0c-0.256,0-0.463-0.207-0.463-0.463V40.347L41.477,40.347z"/>
<path class="st0" d="M48.411,38.754c-0.129-0.221-0.053-0.505,0.17-0.633l0,0c0.221-0.127,0.505-0.051,0.632,0.17l1.882,3.262
	c0.129,0.221,0.053,0.505-0.169,0.633l0,0c-0.221,0.127-0.504,0.051-0.633-0.17L48.411,38.754z"/>
<path class="st0" d="M53.619,33.908c-0.221-0.129-0.297-0.412-0.169-0.633l0,0c0.128-0.222,0.411-0.297,0.632-0.17l3.261,1.884
	c0.223,0.127,0.298,0.41,0.171,0.631l0,0c-0.129,0.223-0.412,0.298-0.634,0.17L53.619,33.908z"/>
<path class="st0" d="M55.706,27.106c-0.255,0-0.464-0.207-0.464-0.463l0,0c0-0.256,0.208-0.463,0.464-0.463h3.765
	c0.257,0,0.465,0.207,0.465,0.463l0,0c-0.001,0.256-0.208,0.463-0.464,0.463H55.706z"/>
<path class="st0" d="M54.113,20.172c-0.222,0.127-0.505,0.052-0.633-0.169l0,0c-0.128-0.222-0.052-0.505,0.17-0.632l3.261-1.883
	c0.221-0.128,0.505-0.053,0.633,0.169l0,0c0.128,0.222,0.052,0.505-0.17,0.633L54.113,20.172z"/>
<path class="st0" d="M49.267,14.963c-0.128,0.221-0.412,0.298-0.634,0.169l0,0c-0.222-0.128-0.297-0.411-0.169-0.632l1.882-3.261
	c0.129-0.222,0.411-0.298,0.633-0.17l0,0c0.222,0.128,0.298,0.412,0.17,0.633L49.267,14.963z"/>
<path class="st1" d="M42.298,51.373c6.575-0.082,11.839-5.479,11.757-12.052c-0.082-6.575-5.479-11.839-12.053-11.758
	c-0.035,0-0.068,0.003-0.104,0.004c-2.349-6.333-8.48-10.812-15.622-10.723c-8.543,0.106-15.482,6.711-16.177,15.055
	c-0.167-0.006-0.335-0.008-0.503-0.006c-5.315,0.066-9.569,4.428-9.503,9.742c0.066,5.313,4.428,9.568,9.743,9.503L42.298,51.373z"
	/>
</svg>
