<?xml version="1.0" encoding="utf-8"?>
<!-- Generator: Adobe Illustrator 16.0.0, SVG Export Plug-In . SVG Version: 6.00 Build 0)  -->
<!DOCTYPE svg PUBLIC "-//W3C//DTD SVG 1.1//EN" "http://www.w3.org/Graphics/SVG/1.1/DTD/svg11.dtd">
<svg version="1.1" id="Layer_1" xmlns="http://www.w3.org/2000/svg" xmlns:xlink="http://www.w3.org/1999/xlink" x="0px" y="0px"
	 width="100%" height="100%" viewBox="0 0 60 60" style="enable-background:new 0 0 60 60;" xml:space="preserve">
<style type="text/css">
<![CDATA[
	.st0{fill:#919191;}
	.st1{fill:#FFFFFF;}
]]>
</style>
<path class="st0" d="M51.465,34.222c4.737-0.059,8.529-3.946,8.471-8.684c-0.06-4.737-3.948-8.529-8.684-8.469
	c-0.024,0-0.049,0.002-0.074,0.002c-1.692-4.563-6.111-7.789-11.255-7.725c-6.155,0.076-11.154,4.834-11.654,10.846
	c-0.121-0.005-0.241-0.007-0.363-0.005c-3.829,0.048-6.894,3.19-6.846,7.02c0.047,3.828,3.19,6.894,7.018,6.847L51.465,34.222z"/>
<path class="st1" d="M38.302,48.051c5.959-0.075,10.727-4.964,10.653-10.922c-0.074-5.956-4.964-10.725-10.92-10.651
	c-0.032,0-0.063,0.003-0.095,0.003c-2.128-5.737-7.684-9.795-14.154-9.715c-7.741,0.097-14.028,6.081-14.657,13.641
	c-0.152-0.006-0.303-0.009-0.457-0.007c-4.815,0.061-8.671,4.014-8.61,8.828c0.06,4.815,4.012,8.671,8.827,8.61L38.302,48.051z"/>
</svg>
