<?xml version="1.0" encoding="utf-8"?>
<!-- Generator: Adobe Illustrator 16.0.0, SVG Export Plug-In . SVG Version: 6.00 Build 0)  -->
<!DOCTYPE svg PUBLIC "-//W3C//DTD SVG 1.1//EN" "http://www.w3.org/Graphics/SVG/1.1/DTD/svg11.dtd">
<svg version="1.1" id="Layer_1" xmlns="http://www.w3.org/2000/svg" xmlns:xlink="http://www.w3.org/1999/xlink" x="0px" y="0px"
	 width="100%" height="100%" viewBox="0 0 60 60" style="enable-background:new 0 0 60 60;" xml:space="preserve">
<style type="text/css">
<![CDATA[
	.st0{fill:none;stroke:#00DBFF;stroke-linecap:round;stroke-linejoin:round;stroke-miterlimit:10;}
	.st1{fill:#919191;}
	.st2{fill:#FFFFFF;}
]]>
</style>
<line class="st0" x1="8.035" y1="44.92" x2="0.991" y2="51.963"/>
<line class="st0" x1="11.558" y1="48.139" x2="4.513" y2="55.184"/>
<line class="st0" x1="21.356" y1="45.221" x2="14.312" y2="52.266"/>
<line class="st0" x1="24.879" y1="48.441" x2="17.834" y2="55.486"/>
<line class="st0" x1="34.678" y1="45.521" x2="27.633" y2="52.566"/>
<line class="st0" x1="38.199" y1="48.742" x2="31.156" y2="55.787"/>
<line class="st0" x1="45.995" y1="45.521" x2="42.958" y2="48.561"/>
<path class="st1" d="M51.35,28.954c4.712-0.058,8.483-3.924,8.424-8.636c-0.059-4.711-3.925-8.482-8.636-8.424
	c-0.025,0-0.05,0.002-0.074,0.002C49.38,7.359,44.986,4.149,39.87,4.213C33.748,4.29,28.776,9.021,28.278,15
	c-0.12-0.004-0.239-0.006-0.36-0.005c-3.809,0.048-6.857,3.173-6.809,6.982c0.047,3.808,3.173,6.856,6.981,6.809L51.35,28.954z"/>
<path class="st2" d="M38.259,42.707c5.925-0.074,10.669-4.936,10.595-10.861c-0.074-5.924-4.937-10.668-10.862-10.595
	c-0.032,0.001-0.061,0.003-0.093,0.004c-2.117-5.707-7.643-9.744-14.078-9.663C16.122,11.688,9.869,17.64,9.242,25.16
	c-0.149-0.007-0.301-0.009-0.453-0.007C4,25.213,0.166,29.144,0.225,33.932c0.059,4.789,3.991,8.625,8.779,8.564L38.259,42.707z"/>
</svg>
