<?xml version="1.0" encoding="utf-8"?>
<!-- Generator: Adobe Illustrator 16.0.0, SVG Export Plug-In . SVG Version: 6.00 Build 0)  -->
<!DOCTYPE svg PUBLIC "-//W3C//DTD SVG 1.1//EN" "http://www.w3.org/Graphics/SVG/1.1/DTD/svg11.dtd">
<svg version="1.1" id="Layer_1" xmlns="http://www.w3.org/2000/svg" xmlns:xlink="http://www.w3.org/1999/xlink" x="0px" y="0px"
	 width="100%" height="100%" viewBox="0 0 60 60" style="enable-background:new 0 0 60 60;" xml:space="preserve">
<style type="text/css">
<![CDATA[
	.st0{fill:none;stroke:#00DBFF;stroke-linecap:round;stroke-linejoin:round;stroke-miterlimit:10;}
	.st1{fill:#EFEFEF;}
	.st2{fill:#FFE600;}
]]>
</style>
<circle class="st2" cx="42.25" cy="19.742" r="10.911"/>
<path class="st2" d="M42.735,6.244c0,0.25-0.203,0.455-0.455,0.455l0,0c-0.251,0-0.456-0.204-0.456-0.455V2.542
	c0-0.252,0.205-0.456,0.456-0.456l0,0c0.252,0,0.455,0.203,0.455,0.456V6.244z"/>
<path class="st2" d="M35.921,7.809c0.127,0.218,0.052,0.495-0.166,0.621l0,0c-0.217,0.125-0.496,0.05-0.621-0.166l-1.851-3.207
	c-0.127-0.216-0.052-0.494,0.165-0.621l0,0c0.219-0.125,0.497-0.05,0.623,0.168L35.921,7.809z"/>
<path class="st2" d="M30.803,12.572c0.217,0.125,0.292,0.403,0.166,0.621l0,0c-0.125,0.217-0.403,0.292-0.621,0.167l-3.205-1.851
	c-0.217-0.125-0.292-0.404-0.167-0.622l0,0c0.126-0.218,0.405-0.291,0.622-0.166L30.803,12.572z"/>
<path class="st2" d="M28.751,19.256c0.251,0,0.455,0.203,0.455,0.457l0,0c0,0.25-0.204,0.453-0.455,0.453h-3.701
	c-0.25,0-0.456-0.204-0.456-0.453l0,0c0-0.253,0.205-0.457,0.456-0.457H28.751z"/>
<path class="st2" d="M30.317,26.07c0.218-0.125,0.497-0.051,0.622,0.167l0,0c0.126,0.218,0.052,0.497-0.165,0.621l-3.206,1.85
	c-0.219,0.128-0.496,0.053-0.623-0.165l0,0c-0.125-0.218-0.051-0.497,0.167-0.623L30.317,26.07z"/>
<path class="st2" d="M35.08,31.188c0.127-0.216,0.405-0.291,0.622-0.165l0,0c0.217,0.125,0.292,0.403,0.167,0.621l-1.851,3.204
	c-0.125,0.219-0.403,0.294-0.622,0.168l0,0c-0.218-0.128-0.292-0.406-0.167-0.623L35.08,31.188z"/>
<path class="st2" d="M41.765,33.238c0-0.25,0.204-0.453,0.456-0.453l0,0c0.251,0,0.454,0.203,0.454,0.453v3.702
	c0,0.252-0.203,0.455-0.454,0.455l0,0c-0.252,0-0.456-0.203-0.456-0.455V33.238L41.765,33.238z"/>
<path class="st2" d="M48.58,31.673c-0.128-0.216-0.053-0.496,0.167-0.622l0,0c0.217-0.125,0.494-0.049,0.62,0.168l1.85,3.205
	c0.127,0.219,0.053,0.495-0.165,0.621l0,0c-0.219,0.126-0.498,0.051-0.622-0.166L48.58,31.673z"/>
<path class="st2" d="M53.697,26.912c-0.218-0.127-0.292-0.405-0.168-0.622l0,0c0.128-0.218,0.406-0.293,0.623-0.168l3.204,1.851
	c0.22,0.127,0.292,0.403,0.168,0.622l0,0c-0.126,0.218-0.405,0.293-0.622,0.166L53.697,26.912z"/>
<path class="st2" d="M55.749,20.226c-0.252,0-0.455-0.204-0.455-0.455l0,0c0-0.251,0.202-0.456,0.455-0.456h3.7
	c0.252,0,0.455,0.204,0.455,0.456l0,0c-0.001,0.25-0.203,0.455-0.455,0.455H55.749z"/>
<path class="st2" d="M54.183,13.412c-0.217,0.125-0.496,0.051-0.622-0.167l0,0c-0.126-0.218-0.052-0.497,0.168-0.621l3.204-1.851
	c0.217-0.125,0.495-0.052,0.622,0.166l0,0c0.126,0.218,0.05,0.496-0.167,0.622L54.183,13.412z"/>
<path class="st2" d="M49.42,8.294c-0.128,0.218-0.404,0.292-0.623,0.165l0,0c-0.217-0.125-0.29-0.403-0.166-0.619l1.851-3.207
	c0.125-0.216,0.403-0.291,0.62-0.166l0,0c0.22,0.126,0.292,0.403,0.168,0.623L49.42,8.294z"/>
<path class="st1" d="M42.571,44.074c6.462-0.08,11.635-5.384,11.553-11.845c-0.078-6.46-5.382-11.635-11.842-11.553
	c-0.035,0-0.069,0.004-0.103,0.004c-2.309-6.223-8.335-10.625-15.352-10.538c-8.396,0.104-15.214,6.596-15.897,14.795
	c-0.164-0.007-0.329-0.009-0.495-0.007c-5.222,0.065-9.404,4.351-9.339,9.573c0.065,5.224,4.352,9.404,9.574,9.34L42.571,44.074z"/>
<line class="st0" x1="8.778" y1="46.06" x2="1.096" y2="53.742"/>
<line class="st0" x1="12.618" y1="49.571" x2="4.937" y2="57.256"/>
<line class="st0" x1="23.305" y1="46.39" x2="15.623" y2="54.072"/>
<line class="st0" x1="27.146" y1="49.899" x2="19.464" y2="57.584"/>
<line class="st0" x1="37.831" y1="46.719" x2="30.15" y2="54.4"/>
<line class="st0" x1="41.673" y1="50.23" x2="33.99" y2="57.912"/>
<line class="st0" x1="50.174" y1="46.719" x2="46.862" y2="50.03"/>
</svg>
