<?xml version="1.0" encoding="utf-8"?>
<!-- Generator: Adobe Illustrator 16.0.0, SVG Export Plug-In . SVG Version: 6.00 Build 0)  -->
<!DOCTYPE svg PUBLIC "-//W3C//DTD SVG 1.1//EN" "http://www.w3.org/Graphics/SVG/1.1/DTD/svg11.dtd">
<svg version="1.1" id="Layer_1" xmlns="http://www.w3.org/2000/svg" xmlns:xlink="http://www.w3.org/1999/xlink" x="0px" y="0px"
	 width="100%" height="100%" viewBox="0 0 60 60" style="enable-background:new 0 0 60 60;" xml:space="preserve">
<style type="text/css">
<![CDATA[
	.st0{fill:none;stroke:#919191;stroke-linecap:round;stroke-linejoin:round;stroke-miterlimit:10;}
	.st1{fill:#919191;}
	.st2{fill:#FFFFFF;}
]]>
</style>
<path class="st1" d="M51.456,30.306c4.735-0.059,8.525-3.945,8.466-8.679c-0.059-4.735-3.943-8.524-8.679-8.465
	c-0.025,0-0.05,0.002-0.074,0.002c-1.692-4.561-6.108-7.786-11.249-7.722c-6.151,0.076-11.149,4.833-11.65,10.841
	c-0.12-0.004-0.241-0.006-0.361-0.005c-3.826,0.048-6.891,3.189-6.843,7.016c0.048,3.828,3.188,6.891,7.016,6.843L51.456,30.306z"/>
<path class="st2" d="M38.302,44.128c5.952-0.074,10.72-4.961,10.646-10.915c-0.074-5.955-4.962-10.721-10.915-10.647
	c-0.031,0-0.063,0.002-0.094,0.003c-2.128-5.735-7.68-9.792-14.147-9.711C16.053,12.954,9.77,18.936,9.14,26.493
	c-0.15-0.006-0.303-0.008-0.455-0.006c-4.813,0.06-8.666,4.01-8.607,8.822c0.06,4.814,4.01,8.667,8.823,8.606L38.302,44.128z"/>
<g>
	<g>
		<polygon class="st0" points="27.88,35.908 27.704,35.834 30.015,30.922 30.19,30.996 		"/>
	</g>
	<g>
		<rect x="27.792" y="35.78" class="st0" width="3.658" height="0.183"/>
	</g>
	<g>
		<polygon class="st0" points="18.39,54.844 18.229,54.743 31.37,35.822 31.53,35.921 		"/>
	</g>
	<g>
		<polygon class="st0" points="18.404,54.812 18.216,54.775 20.574,43.677 20.763,43.713 		"/>
	</g>
	<g>
		<rect x="16.817" y="43.604" class="st0" width="3.851" height="0.181"/>
	</g>
	<g>
		<rect x="20.07" y="30.868" class="st0" width="10.032" height="0.183"/>
	</g>
	<g>
		<polygon class="st0" points="16.912,43.717 16.725,43.673 19.979,30.937 20.165,30.98 		"/>
	</g>
</g>
</svg>
