<?xml version="1.0" encoding="utf-8"?>
<!-- Generator: Adobe Illustrator 16.0.0, SVG Export Plug-In . SVG Version: 6.00 Build 0)  -->
<!DOCTYPE svg PUBLIC "-//W3C//DTD SVG 1.1//EN" "http://www.w3.org/Graphics/SVG/1.1/DTD/svg11.dtd">
<svg version="1.1" id="Layer_1" xmlns="http://www.w3.org/2000/svg" xmlns:xlink="http://www.w3.org/1999/xlink" x="0px" y="0px"
	 width="100%" height="100%" viewBox="0 0 60 60" style="enable-background:new 0 0 60 60;" xml:space="preserve">
<style type="text/css">
<![CDATA[
	.st0{fill:#00BDFF;}
]]>
</style>
<g>
	<g>
		<path class="st0" d="M30.625,22.882V10.611l-0.116,0.116l-0.476-0.475l-0.475,0.475l-0.183-0.182v12.336
			c0.207-0.018,0.414-0.032,0.625-0.032C30.211,22.85,30.419,22.864,30.625,22.882z"/>
		<path class="st0" d="M31.248,23.563l-0.677-0.059c-0.376-0.033-0.764-0.033-1.141,0l-0.679,0.059V9.037l0.808,0.807l0.475-0.476
			l0.476,0.476l0.739-0.741V23.563L31.248,23.563z"/>
	</g>
	<g>
		<polygon class="st0" points="30.625,8.844 30.625,0.707 29.375,0.707 29.375,8.778 30.034,9.436 		"/>
		<polygon class="st0" points="30.034,10.32 28.751,9.037 28.751,0.082 31.248,0.082 31.248,9.103 		"/>
	</g>
	<g>
		<polygon class="st0" points="22.529,1.932 21.646,2.814 29.375,10.545 29.375,8.778 		"/>
		<polygon class="st0" points="30,12.053 20.763,2.814 22.529,1.048 30,8.519 		"/>
	</g>
	<g>
		<polygon class="st0" points="30.034,10.253 29.625,9.844 30.034,9.436 29.375,8.778 29.375,10.545 29.559,10.728 		"/>
		<polygon class="st0" points="29.559,11.611 28.751,10.804 28.751,7.269 30.918,9.436 30.509,9.844 30.918,10.253 		"/>
	</g>
	<g>
		<polygon class="st0" points="38.422,2.814 37.539,1.932 30.625,8.844 30.625,10.611 		"/>
		<polygon class="st0" points="30,12.12 30,8.585 37.539,1.048 39.307,2.814 		"/>
	</g>
	<g>
		<polygon class="st0" points="30.443,9.844 30.034,10.253 30.509,10.728 30.625,10.611 30.625,8.844 30.034,9.436 		"/>
		<polygon class="st0" points="30.509,11.611 29.15,10.252 29.558,9.844 29.15,9.437 31.248,7.336 31.248,9.768 31.326,9.844 
			31.248,9.921 31.248,10.87 		"/>
	</g>
	<g>
		
			<rect x="29.744" y="9.554" transform="matrix(-0.7067 0.7075 -0.7075 -0.7067 58.2212 -4.4499)" class="st0" width="0.578" height="0.578"/>
		<polygon class="st0" points="30.033,11.137 28.742,9.844 30.033,8.552 31.326,9.844 		"/>
	</g>
	<g>
		<path class="st0" d="M25.41,24.526l-8.678-8.678v0.166h-0.671v0.67h-0.259l8.724,8.725C24.794,25.09,25.09,24.794,25.41,24.526z"
			/>
		<path class="st0" d="M24.566,26.333L14.294,16.061h1.142v-0.672h0.672V14.34l10.225,10.226l-0.521,0.439
			c-0.291,0.245-0.562,0.516-0.807,0.807L24.566,26.333z"/>
	</g>
	<g>
		<polygon class="st0" points="15.483,14.599 9.729,8.845 8.846,9.728 14.553,15.436 15.483,15.436 		"/>
		<polygon class="st0" points="16.108,16.061 14.294,16.061 7.962,9.728 9.729,7.961 16.108,14.34 		"/>
	</g>
	<g>
		<polygon class="st0" points="7.369,17.935 7.369,19.184 18.301,19.184 17.052,17.935 		"/>
		<path class="st0" d="M19.81,19.808H6.744V17.31H17.31L19.81,19.808z M7.993,18.56h8.8H7.993z"/>
	</g>
	<g>
		<polygon class="st0" points="16.061,16.014 15.483,16.014 15.483,15.436 14.553,15.436 15.802,16.685 16.061,16.685 		"/>
		<polygon class="st0" points="16.685,17.31 15.543,17.31 13.044,14.811 16.108,14.811 16.108,15.389 16.685,15.389 		"/>
	</g>
	<g>
		<polygon class="st0" points="19.231,7.321 17.982,7.321 17.982,17.098 19.231,18.347 		"/>
		<polygon class="st0" points="19.856,19.855 17.357,17.356 17.357,6.696 19.856,6.696 		"/>
	</g>
	<g>
		<polygon class="st0" points="16.061,15.436 16.061,16.014 16.732,16.014 16.732,15.848 15.483,14.599 15.483,15.436 		"/>
		<polygon class="st0" points="17.357,16.639 15.436,16.639 15.436,16.061 14.858,16.061 14.858,13.091 16.579,14.811 
			16.685,14.811 16.685,14.918 17.357,15.589 		"/>
	</g>
	<g>
		<rect x="15.483" y="15.436" class="st0" width="0.578" height="0.579"/>
		<rect x="14.858" y="14.811" class="st0" width="1.827" height="1.828"/>
	</g>
	<g>
		<polygon class="st0" points="8.845,29.375 0.708,29.375 0.708,30.625 8.778,30.625 9.436,29.967 		"/>
		<path class="st0" d="M9.038,31.248H0.083v-2.497h9.021l1.216,1.216L9.038,31.248z M1.332,30H8.52H1.332z"/>
	</g>
	<g>
		<path class="st0" d="M22.882,29.375H10.611l0.117,0.118l-0.475,0.475l0.475,0.475l-0.183,0.183h12.336
			C22.865,30.419,22.85,30.211,22.85,30C22.851,29.789,22.865,29.582,22.882,29.375z"/>
		<path class="st0" d="M23.564,31.248H9.038l0.807-0.806L9.37,29.968l0.477-0.476l-0.739-0.741h14.457l-0.059,0.679
			c-0.017,0.188-0.029,0.378-0.029,0.57c0,0.191,0.013,0.382,0.029,0.57L23.564,31.248z M11.169,30L22.226,30l0,0L11.169,30z"/>
	</g>
	<g>
		<polygon class="st0" points="1.932,37.473 2.815,38.354 10.546,30.625 8.778,30.625 		"/>
		<polygon class="st0" points="2.815,39.238 1.048,37.473 8.52,30 12.054,30 		"/>
	</g>
	<g>
		<polygon class="st0" points="10.253,29.968 9.845,30.376 9.436,29.967 8.778,30.625 10.546,30.625 10.728,30.442 		"/>
		<polygon class="st0" points="9.845,31.26 9.835,31.248 7.271,31.248 9.436,29.083 9.845,29.493 10.253,29.084 11.612,30.442 
			10.804,31.248 		"/>
	</g>
	<g>
		<polygon class="st0" points="2.815,21.579 1.932,22.462 8.845,29.375 10.611,29.375 		"/>
		<polygon class="st0" points="12.12,30 8.586,30 1.048,22.462 2.815,20.695 		"/>
	</g>
	<g>
		<polygon class="st0" points="9.845,29.559 10.253,29.968 10.729,29.493 10.611,29.375 8.845,29.375 9.436,29.967 		"/>
		<polygon class="st0" points="10.253,30.852 9.845,30.442 9.436,30.85 7.337,28.751 9.77,28.751 9.845,28.675 9.921,28.751 
			10.871,28.751 11.611,29.493 		"/>
	</g>
	<g>
		
			<rect x="9.555" y="29.68" transform="matrix(0.7067 0.7075 -0.7075 0.7067 24.0911 1.825)" class="st0" width="0.579" height="0.578"/>
		
			<rect x="8.935" y="29.054" transform="matrix(-0.707 -0.7072 0.7072 -0.707 -4.3815 58.1192)" class="st0" width="1.828" height="1.827"/>
	</g>
	<g>
		<polygon class="st0" points="14.599,44.518 8.845,50.271 9.729,51.154 15.436,45.447 15.436,44.518 		"/>
		<polygon class="st0" points="9.729,52.037 7.961,50.271 14.34,43.893 16.061,43.893 16.061,45.707 		"/>
	</g>
	<g>
		<path class="st0" d="M24.526,34.59l-8.678,8.678h0.166v0.672h0.671v0.26l8.725-8.727C25.09,35.205,24.794,34.91,24.526,34.59z"/>
		<path class="st0" d="M16.061,45.707v-1.143h-0.672v-0.674H14.34l10.227-10.225l0.438,0.523c0.246,0.291,0.517,0.563,0.807,0.805
			l0.522,0.438L16.061,45.707z"/>
	</g>
	<g>
		<polygon class="st0" points="17.518,53.047 18.768,53.047 18.768,42.115 17.518,43.365 		"/>
		<polygon class="st0" points="19.393,53.672 16.894,53.672 16.894,43.105 19.393,40.607 		"/>
	</g>
	<g>
		<polygon class="st0" points="16.015,43.939 16.015,44.518 15.436,44.518 15.436,45.447 16.685,44.199 16.685,43.939 		"/>
		<polygon class="st0" points="14.811,46.955 14.811,43.893 15.389,43.893 15.389,43.314 17.31,43.314 17.31,44.455 		"/>
	</g>
	<g>
		<polygon class="st0" points="6.905,41.186 6.905,42.436 16.682,42.436 17.931,41.186 		"/>
		<path class="st0" d="M16.94,43.059H6.28v-2.498h13.158L16.94,43.059z M7.53,41.811h8.893H7.53z"/>
	</g>
	<g>
		<polygon class="st0" points="15.436,43.939 16.015,43.939 16.015,43.268 15.849,43.268 14.599,44.518 15.436,44.518 		"/>
		<polygon class="st0" points="16.061,45.143 13.091,45.143 14.811,43.422 14.811,43.314 14.918,43.314 15.589,42.643 
			16.639,42.643 16.639,44.564 16.061,44.564 		"/>
	</g>
	<g>
		<rect x="15.436" y="43.939" class="st0" width="0.579" height="0.578"/>
		<rect x="14.811" y="43.314" class="st0" width="1.828" height="1.828"/>
	</g>
	<g>
		<path class="st0" d="M29.375,37.117v12.271l0.117-0.117l0.476,0.475l0.475-0.475l0.182,0.184V37.117
			c-0.206,0.018-0.414,0.031-0.625,0.031S29.582,37.135,29.375,37.117z"/>
		<path class="st0" d="M31.248,50.963l-0.805-0.809l-0.475,0.475l-0.476-0.475l-0.742,0.742l0-14.459l0.679,0.059
			c0.376,0.033,0.763,0.033,1.141,0l0.677-0.059V50.963z M30,37.773V48.83V37.773L30,37.773L30,37.773z"/>
	</g>
	<g>
		<polygon class="st0" points="29.375,51.156 29.375,59.293 30.625,59.293 30.625,51.223 29.968,50.564 		"/>
		<polygon class="st0" points="31.248,59.918 28.751,59.918 28.751,50.896 29.968,49.68 31.248,50.963 		"/>
	</g>
	<g>
		<polygon class="st0" points="37.473,58.068 38.355,57.186 30.625,49.455 30.625,51.223 		"/>
		<polygon class="st0" points="37.473,58.951 30,51.479 30,47.947 39.238,57.186 		"/>
	</g>
	<g>
		<polygon class="st0" points="29.968,49.746 30.377,50.154 29.968,50.564 30.625,51.223 30.625,49.455 30.443,49.271 		"/>
		<polygon class="st0" points="31.248,52.73 29.084,50.564 29.493,50.154 29.084,49.746 30.443,48.389 31.248,49.195 		"/>
	</g>
	<g>
		<polygon class="st0" points="21.579,57.186 22.462,58.068 29.375,51.156 29.375,49.389 		"/>
		<polygon class="st0" points="22.462,58.951 20.695,57.186 30,47.881 30,51.414 		"/>
	</g>
	<g>
		<polygon class="st0" points="29.559,50.154 29.968,49.746 29.493,49.271 29.375,49.389 29.375,51.156 29.968,50.564 		"/>
		<polygon class="st0" points="28.751,52.664 28.751,50.23 28.675,50.154 28.751,50.082 28.751,49.131 29.493,48.387 30.85,49.746 
			30.443,50.154 30.852,50.564 		"/>
	</g>
	<g>
		
			<rect x="29.679" y="49.862" transform="matrix(0.7054 -0.7088 0.7088 0.7054 -26.7181 36.0156)" class="st0" width="0.581" height="0.579"/>
		<polygon class="st0" points="29.968,51.447 28.675,50.154 29.967,48.863 31.26,50.154 		"/>
	</g>
	<g>
		<polygon class="st0" points="44.52,45.4 50.271,51.154 51.156,50.273 45.447,44.564 44.52,44.564 		"/>
		<polygon class="st0" points="50.271,52.037 43.895,45.66 43.895,43.939 45.707,43.939 52.039,50.273 		"/>
	</g>
	<g>
		<path class="st0" d="M34.59,35.473l8.68,8.68v-0.168h0.67v-0.67h0.26l-8.725-8.725C35.207,34.91,34.91,35.205,34.59,35.473z"/>
		<path class="st0" d="M43.895,45.66L33.668,35.434l0.521-0.439c0.291-0.242,0.563-0.514,0.807-0.805l0.438-0.521l10.273,10.271
			h-1.143v0.672h-0.67V45.66L43.895,45.66z"/>
	</g>
	<g>
		<polygon class="st0" points="53.051,42.48 53.051,41.232 42.117,41.232 43.365,42.48 		"/>
		<path class="st0" d="M53.674,43.107H43.105l-2.496-2.5h13.064V43.107L53.674,43.107z M43.625,41.857h8.799H43.625z"/>
	</g>
	<g>
		<polygon class="st0" points="43.939,43.984 44.52,43.984 44.52,44.564 45.447,44.564 44.199,43.314 43.939,43.314 		"/>
		<polygon class="st0" points="46.957,45.189 43.895,45.189 43.895,44.611 43.316,44.611 43.316,42.689 44.457,42.689 		"/>
	</g>
	<g>
		<polygon class="st0" points="41.188,53.096 42.436,53.096 42.436,43.318 41.188,42.07 		"/>
		<polygon class="st0" points="43.061,53.719 40.561,53.719 40.561,40.561 43.061,43.059 		"/>
	</g>
	<g>
		<polygon class="st0" points="43.939,44.564 43.939,43.984 43.268,43.984 43.268,44.152 44.52,45.4 44.52,44.564 		"/>
		<polygon class="st0" points="45.143,46.91 43.424,45.189 43.316,45.189 43.316,45.082 42.643,44.41 42.643,43.361 44.564,43.361 
			44.564,43.939 45.143,43.939 		"/>
	</g>
	<g>
		<rect x="43.939" y="43.984" class="st0" width="0.58" height="0.58"/>
		<rect x="43.316" y="43.361" class="st0" width="1.826" height="1.828"/>
	</g>
	<g>
		<polygon class="st0" points="59.295,29.376 51.223,29.375 50.564,30.033 51.158,30.625 59.295,30.626 		"/>
		<path class="st0" d="M59.918,31.25l-9.02-0.002l-1.217-1.215l1.281-1.282l8.955,0.001V31.25z M51.48,30h7.189H51.48z"/>
	</g>
	<g>
		<path class="st0" d="M49.746,30.032l-0.475-0.474l0.184-0.184H37.117c0.021,0.207,0.033,0.414,0.033,0.625
			s-0.012,0.419-0.033,0.625h12.273l-0.119-0.117L49.746,30.032z"/>
		<path class="st0" d="M50.902,31.248H36.436l0.061-0.678c0.018-0.188,0.029-0.378,0.029-0.569c0-0.192-0.012-0.381-0.029-0.569
			l-0.061-0.68h14.525l-0.805,0.807l0.475,0.475l-0.475,0.475L50.902,31.248z M37.775,30h11.057H37.775z"/>
	</g>
	<g>
		<polygon class="st0" points="58.068,22.529 57.188,21.646 49.455,29.375 51.223,29.375 		"/>
		<polygon class="st0" points="51.48,30 47.947,30 57.188,20.762 58.953,22.529 		"/>
	</g>
	<g>
		<polygon class="st0" points="49.746,30.032 50.156,29.625 50.564,30.033 51.223,29.375 49.455,29.375 49.271,29.559 		"/>
		<polygon class="st0" points="50.564,30.917 50.156,30.508 49.746,30.917 48.391,29.559 49.197,28.751 52.729,28.751 		"/>
	</g>
	<g>
		<polygon class="st0" points="57.188,38.422 58.068,37.537 51.158,30.625 49.391,30.625 		"/>
		<polygon class="st0" points="57.188,39.305 47.883,30 51.416,30 58.953,37.537 		"/>
	</g>
	<g>
		<polygon class="st0" points="50.156,30.442 49.746,30.032 49.271,30.508 49.391,30.625 51.158,30.625 50.564,30.033 		"/>
		<polygon class="st0" points="50.156,31.324 50.082,31.248 49.133,31.248 48.389,30.508 49.746,29.15 50.156,29.559 50.564,29.15 
			52.666,31.248 50.232,31.248 		"/>
	</g>
	<g>
		
			<rect x="49.87" y="29.745" transform="matrix(0.7079 0.7063 -0.7063 0.7079 35.8612 -26.6548)" class="st0" width="0.579" height="0.578"/>
		
			<rect x="49.247" y="29.119" transform="matrix(-0.7072 -0.707 0.707 -0.7072 64.4053 86.7344)" class="st0" width="1.828" height="1.826"/>
	</g>
	<g>
		<polygon class="st0" points="45.402,15.483 51.156,9.729 50.273,8.846 44.564,14.552 44.564,15.483 		"/>
		<path class="st0" d="M45.662,16.108h-1.723v-1.814l6.334-6.332l1.766,1.767L45.662,16.108z M45.191,14.811L45.191,14.811
			l2.844-2.845L45.191,14.811z"/>
	</g>
	<g>
		<path class="st0" d="M35.475,25.41l8.68-8.678h-0.168V16.06h-0.67v-0.258l-8.727,8.724C34.912,24.794,35.207,25.09,35.475,25.41z"
			/>
		<path class="st0" d="M35.434,26.334l-0.436-0.522c-0.248-0.292-0.52-0.563-0.809-0.806l-0.523-0.438l10.273-10.274v1.142h0.674
			v0.672h1.049L35.434,26.334z M43.316,16.685l-4.258,4.257L43.316,16.685L43.316,16.685z"/>
	</g>
	<g>
		<polygon class="st0" points="42.484,6.952 41.232,6.952 41.232,17.884 42.484,16.635 		"/>
		<polygon class="st0" points="40.609,19.392 40.609,6.327 43.107,6.327 43.107,16.893 		"/>
	</g>
	<g>
		<polygon class="st0" points="43.986,16.061 43.986,15.483 44.564,15.483 44.564,14.552 43.316,15.802 43.316,16.061 		"/>
		<polygon class="st0" points="44.613,16.685 42.691,16.685 42.691,15.543 45.191,13.044 45.191,16.108 44.613,16.108 		"/>
	</g>
	<g>
		<polygon class="st0" points="53.096,18.813 53.096,17.565 43.32,17.565 42.07,18.813 		"/>
		<path class="st0" d="M53.721,19.439H40.563l2.5-2.499h10.658V19.439L53.721,19.439z M43.578,18.189h8.895H43.578z"/>
	</g>
	<g>
		<polygon class="st0" points="44.564,16.061 43.986,16.061 43.986,16.732 44.154,16.732 45.402,15.483 44.564,15.483 		"/>
		<polygon class="st0" points="44.41,17.356 43.361,17.356 43.361,15.436 43.939,15.436 43.939,14.858 46.91,14.858 45.191,16.579 
			45.191,16.685 45.084,16.685 		"/>
	</g>
	<g>
		<rect x="43.986" y="15.483" class="st0" width="0.578" height="0.578"/>
		<rect x="43.361" y="14.858" class="st0" width="1.83" height="1.827"/>
	</g>
	<g>
		<path class="st0" d="M34.588,33.703l0.887,0.889c0.92-1.094,1.514-2.463,1.643-3.967h-1.25
			C35.744,31.783,35.285,32.842,34.588,33.703z"/>
		<path class="st0" d="M35.514,35.514l-1.766-1.766l0.354-0.438c0.643-0.793,1.037-1.744,1.145-2.751L35.305,30h2.496l-0.061,0.679
			c-0.137,1.595-0.756,3.087-1.787,4.313L35.514,35.514z"/>
	</g>
	<g>
		<path class="st0" d="M24.134,30.625h-1.252c0.131,1.504,0.726,2.871,1.645,3.965l0.887-0.887
			C24.717,32.842,24.257,31.783,24.134,30.625z"/>
		<path class="st0" d="M24.486,35.514l-0.438-0.521c-1.031-1.227-1.649-2.719-1.788-4.313L22.2,30h2.496l0.06,0.559
			c0.105,1.007,0.501,1.958,1.144,2.751l0.354,0.438L24.486,35.514z"/>
	</g>
	<g>
		<path class="st0" d="M25.414,26.296l-0.887-0.887c-0.918,1.093-1.513,2.463-1.645,3.965h1.252
			C24.257,28.216,24.717,27.158,25.414,26.296z"/>
		<path class="st0" d="M24.696,30h-2.496l0.06-0.679c0.139-1.594,0.757-3.086,1.788-4.314l0.438-0.521l1.768,1.767L25.9,26.69
			c-0.643,0.793-1.038,1.745-1.144,2.751L24.696,30z"/>
	</g>
	<g>
		<path class="st0" d="M26.297,34.586l-0.887,0.887c1.093,0.918,2.463,1.514,3.965,1.645v-1.252
			C28.217,35.742,27.158,35.283,26.297,34.586z"/>
		<path class="st0" d="M30,37.799l-0.678-0.059c-1.595-0.139-3.086-0.758-4.314-1.789l-0.522-0.438l1.767-1.768l0.438,0.355
			c0.793,0.641,1.745,1.037,2.752,1.145L30,35.303V37.799L30,37.799z"/>
	</g>
	<g>
		<path class="st0" d="M30.625,35.865v1.252c1.504-0.131,2.873-0.727,3.965-1.645l-0.885-0.885
			C32.844,35.283,31.783,35.742,30.625,35.865z"/>
		<path class="st0" d="M30,37.799v-2.496l0.559-0.057c1.007-0.107,1.958-0.504,2.753-1.145l0.436-0.354l1.766,1.766l-0.52,0.438
			c-1.227,1.029-2.719,1.648-4.315,1.789L30,37.799z"/>
	</g>
	<g>
		<path class="st0" d="M33.705,25.414l0.885-0.887c-1.092-0.918-2.461-1.514-3.965-1.645v1.252
			C31.783,24.256,32.844,24.716,33.705,25.414z"/>
		<path class="st0" d="M33.748,26.253l-0.436-0.354c-0.795-0.643-1.746-1.038-2.753-1.145l-0.558-0.059v-2.495l0.68,0.059
			c1.595,0.139,3.087,0.758,4.313,1.788l0.521,0.438L33.748,26.253z"/>
	</g>
	<g>
		<path class="st0" d="M29.375,24.134v-1.252c-1.502,0.131-2.873,0.727-3.965,1.644l0.887,0.888
			C27.158,24.716,28.217,24.256,29.375,24.134z"/>
		<path class="st0" d="M26.253,26.252l-1.768-1.767l0.522-0.438c1.228-1.031,2.72-1.649,4.314-1.788L30,22.2v2.496l-0.558,0.059
			c-1.007,0.106-1.959,0.502-2.752,1.144L26.253,26.252z"/>
	</g>
	<g>
		<path class="st0" d="M35.867,29.375h1.25c-0.129-1.502-0.723-2.873-1.643-3.965l-0.887,0.888
			C35.285,27.158,35.744,28.216,35.867,29.375z"/>
		<path class="st0" d="M37.801,30h-2.496l-0.059-0.56c-0.107-1.006-0.502-1.958-1.145-2.751l-0.354-0.438l1.768-1.766l0.438,0.521
			c1.031,1.228,1.65,2.72,1.789,4.314L37.801,30z"/>
	</g>
	<g>
		<path class="st0" d="M30,24.1c0.211,0,0.419,0.012,0.625,0.034v-1.252C30.419,22.864,30.211,22.85,30,22.85
			s-0.418,0.014-0.625,0.032v1.252C29.581,24.112,29.789,24.1,30,24.1z"/>
		<path class="st0" d="M31.248,24.827l-0.687-0.072c-0.384-0.041-0.737-0.041-1.12,0l-0.689,0.072V22.31l0.57-0.05
			c0.366-0.031,0.992-0.031,1.357,0l0.569,0.05V24.827L31.248,24.827z"/>
	</g>
	<g>
		<path class="st0" d="M26.297,25.414l-0.887-0.888c-0.32,0.268-0.616,0.564-0.884,0.884l0.888,0.887
			C25.677,25.972,25.972,25.676,26.297,25.414z"/>
		<path class="st0" d="M25.463,27.229l-1.784-1.782l0.369-0.439c0.291-0.346,0.614-0.669,0.959-0.959l0.438-0.369l1.784,1.783
			l-0.541,0.437c-0.289,0.233-0.555,0.5-0.79,0.791L25.463,27.229z"/>
	</g>
	<g>
		<path class="st0" d="M24.1,30c0-0.211,0.012-0.42,0.034-0.625h-1.252C22.865,29.582,22.85,29.789,22.85,30
			c0,0.21,0.014,0.419,0.032,0.625h1.252C24.112,30.42,24.1,30.212,24.1,30z"/>
		<path class="st0" d="M24.83,31.248h-2.52l-0.049-0.569c-0.016-0.183-0.035-0.425-0.035-0.678c0-0.254,0.019-0.497,0.035-0.679
			l0.049-0.57h2.52l-0.074,0.691c-0.021,0.19-0.031,0.378-0.031,0.559s0.01,0.368,0.031,0.559L24.83,31.248z"/>
	</g>
	<g>
		<path class="st0" d="M25.414,33.703l-0.887,0.887c0.268,0.32,0.563,0.615,0.883,0.883l0.887-0.887
			C25.972,34.324,25.676,34.027,25.414,33.703z"/>
		<path class="st0" d="M25.446,36.318l-0.438-0.367c-0.345-0.289-0.667-0.611-0.96-0.959l-0.368-0.439l1.784-1.783l0.437,0.541
			c0.234,0.289,0.499,0.555,0.79,0.791l0.54,0.436L25.446,36.318z"/>
	</g>
	<g>
		<path class="st0" d="M30,35.9c-0.211,0-0.419-0.012-0.625-0.035v1.252c0.207,0.018,0.413,0.031,0.625,0.031
			s0.419-0.014,0.625-0.031v-1.252C30.419,35.889,30.211,35.9,30,35.9z"/>
		<path class="st0" d="M30,37.773c-0.253,0-0.495-0.018-0.678-0.033l-0.57-0.051v-2.518l0.689,0.072c0.383,0.041,0.734,0.041,1.12,0
			l0.687-0.072v2.518l-0.569,0.051C30.497,37.756,30.254,37.773,30,37.773z"/>
	</g>
	<g>
		<path class="st0" d="M33.705,34.588l0.885,0.885c0.32-0.268,0.617-0.563,0.885-0.881l-0.887-0.889
			C34.326,34.027,34.027,34.324,33.705,34.588z"/>
		<path class="st0" d="M34.555,36.32l-1.783-1.783l0.541-0.436c0.289-0.234,0.555-0.502,0.789-0.791l0.438-0.541l1.783,1.783
			l-0.369,0.439c-0.291,0.346-0.613,0.668-0.959,0.959L34.555,36.32z"/>
	</g>
	<g>
		<path class="st0" d="M37.117,29.375h-1.25C35.889,29.581,35.9,29.789,35.9,30s-0.012,0.42-0.033,0.625h1.25
			c0.021-0.206,0.033-0.413,0.033-0.625S37.139,29.582,37.117,29.375z"/>
		<path class="st0" d="M37.691,31.248h-2.518l0.072-0.688c0.021-0.192,0.031-0.38,0.031-0.56s-0.01-0.368-0.031-0.56l-0.072-0.69
			h2.518l0.049,0.569c0.023,0.267,0.035,0.477,0.035,0.68c0,0.202-0.012,0.417-0.035,0.679L37.691,31.248z"/>
	</g>
	<g>
		<path class="st0" d="M34.588,26.297l0.887-0.888c-0.268-0.319-0.563-0.616-0.885-0.883l-0.885,0.887
			C34.029,25.676,34.326,25.972,34.588,26.297z"/>
		<path class="st0" d="M34.539,27.229l-0.438-0.541c-0.232-0.29-0.498-0.554-0.789-0.79l-0.541-0.437l1.783-1.782l0.439,0.368
			c0.344,0.29,0.668,0.613,0.959,0.959l0.369,0.439L34.539,27.229z"/>
	</g>
</g>
</svg>
