<?xml version="1.0" encoding="utf-8"?>
<!-- Generator: Adobe Illustrator 16.0.0, SVG Export Plug-In . SVG Version: 6.00 Build 0)  -->
<!DOCTYPE svg PUBLIC "-//W3C//DTD SVG 1.1//EN" "http://www.w3.org/Graphics/SVG/1.1/DTD/svg11.dtd">
<svg version="1.1" id="Layer_1" xmlns="http://www.w3.org/2000/svg" xmlns:xlink="http://www.w3.org/1999/xlink" x="0px" y="0px"
	 width="100%" height="100%" viewBox="0 0 60 60" style="enable-background:new 0 0 60 60;" xml:space="preserve">
<style type="text/css">
<![CDATA[
	.st0{fill:#666666;}
	.st1{fill:#DDDDDD;}
]]>
</style>
<path class="st1" d="M14.976,20.687c-2.299,0-4.352-0.331-6.076-0.779C3.489,18.499,0.14,15.736,0,15.619l0.7-0.839
	c0.033,0.027,3.333,2.742,8.52,4.08c6.931,1.789,13.769,0.405,20.323-4.11c8.524-5.873,16.27-5.557,21.264-4.257
	c5.411,1.407,8.761,4.17,8.9,4.287l-0.7,0.839c-0.032-0.027-3.333-2.742-8.52-4.08c-6.931-1.789-13.769-0.405-20.324,4.11
	C24.582,19.494,19.335,20.687,14.976,20.687z"/>
<path class="st0" d="M14.976,28.087c-2.299,0-4.352-0.331-6.076-0.78C3.489,25.899,0.14,23.137,0,23.02l0.7-0.839
	c0.033,0.027,3.333,2.742,8.52,4.08c6.931,1.788,13.769,0.405,20.323-4.11c8.524-5.873,16.27-5.557,21.264-4.257
	c5.411,1.407,8.761,4.17,8.9,4.287l-0.7,0.839c-0.032-0.027-3.333-2.742-8.52-4.08c-6.931-1.789-13.769-0.405-20.324,4.11
	C24.582,26.895,19.335,28.087,14.976,28.087z"/>
<path class="st0" d="M14.976,35.487c-2.3,0-4.352-0.331-6.076-0.78C3.488,33.3,0.14,30.536,0,30.42l0.7-0.839
	c0.032,0.027,3.333,2.742,8.52,4.08c6.931,1.789,13.769,0.405,20.323-4.11c8.524-5.873,16.27-5.557,21.264-4.258
	c5.411,1.408,8.76,4.171,8.9,4.288l-0.7,0.839c-0.033-0.027-3.333-2.742-8.52-4.08c-6.932-1.789-13.769-0.405-20.324,4.11
	C24.582,34.295,19.335,35.487,14.976,35.487z"/>
<path class="st0" d="M14.976,42.887c-2.3,0-4.352-0.331-6.076-0.779C3.488,40.7,0.14,37.937,0,37.819l0.7-0.839
	c0.032,0.027,3.333,2.742,8.52,4.081c6.93,1.787,13.769,0.405,20.323-4.111c8.524-5.873,16.27-5.556,21.264-4.257
	c5.411,1.407,8.761,4.17,8.9,4.287l-0.7,0.839c-0.032-0.027-3.333-2.742-8.52-4.08c-6.932-1.789-13.769-0.405-20.324,4.11
	C24.582,41.695,19.335,42.887,14.976,42.887z"/>
<path class="st0" d="M14.976,50.287c-2.3,0-4.352-0.331-6.076-0.78C3.488,48.1,0.14,45.336,0,45.22l0.7-0.839
	c0.032,0.027,3.333,2.742,8.52,4.08c6.93,1.789,13.769,0.405,20.323-4.11c8.524-5.873,16.27-5.557,21.264-4.257
	c5.411,1.407,8.761,4.171,8.9,4.287l-0.7,0.839c-0.032-0.027-3.333-2.742-8.52-4.081c-6.932-1.789-13.769-0.405-20.324,4.111
	C24.582,49.095,19.335,50.287,14.976,50.287z"/>
</svg>
